<svg xmlns="http://www.w3.org/2000/svg" viewBox="0 0 30 30" style="enable-background:new 0 0 30 30" xml:space="preserve">
    <style>
        .st0{display:none}.st1{display:inline}.st2,.st3{fill-rule:evenodd;clip-rule:evenodd;fill:#0e0e0e}.st3{fill:#c4722c}.st4{fill:#0e0e0e}.st5{fill:#0d0d0d}.st6{fill:#cc752b}.st8{fill:#fff}.st10{fill:#c4722c}.st11{fill:#d57827}.st12{fill:#0d0c0c}.st13,.st14,.st16,.st17,.st18,.st20{fill:none;stroke:#0d0c0c;stroke-width:1.5637;stroke-linecap:round;stroke-linejoin:round;stroke-miterlimit:10}.st14,.st16,.st17,.st18,.st20{stroke-width:1.0425}.st16,.st17,.st18,.st20{stroke-width:.8352}.st17,.st18,.st20{stroke:#cc752b;stroke-width:1.5637}.st18,.st20{stroke-width:1.0425}.st20{stroke-width:.8352}
    </style>
    <g id="수업_00000166651440882671430300000013252712681960593025_">
        <path class="st8" d="M9.3 13.3h11.8v9.9H9.3z"/>
        <path class="st12" d="M26 5.3H4c-1 0-1.5.5-1.5 1.5v3.8h24.9V6.8c.1-1-.4-1.5-1.4-1.5z"/>
        <path class="st6" d="M7.5 3.3c-.8 0-1.5.6-1.5 1.4v1.9C6 7.4 6.7 8 7.5 8s1.4-.6 1.4-1.4V4.7c0-.8-.6-1.4-1.4-1.4zM15 3.3c-.8 0-1.4.6-1.4 1.4v1.9c0 .8.6 1.4 1.4 1.4.8 0 1.4-.6 1.4-1.4V4.7c0-.8-.6-1.4-1.4-1.4zM22.5 3.3c-.8 0-1.4.6-1.4 1.4v1.9c0 .8.6 1.4 1.4 1.4.8 0 1.5-.6 1.5-1.4V4.7c0-.8-.7-1.4-1.5-1.4zM2.5 11.5v13.8c0 1 .5 1.5 1.5 1.5h22c1 0 1.5-.5 1.5-1.5V11.5h-25zM19.1 16l-4 5.9c-.2.3-.5.4-.8.4h-.1c-.3 0-.6-.1-.8-.3L11 19.2c-.4-.4-.3-1.1.1-1.4.4-.4 1.1-.3 1.4.1l1.7 1.9 3.3-4.8c.3-.5.9-.6 1.4-.3.4.2.5.9.2 1.3z"/>
    </g>
</svg>
