<?xml version="1.0" encoding="utf-8"?>
<!-- Generator: Adobe Illustrator 27.7.0, SVG Export Plug-In . SVG Version: 6.00 Build 0)  -->
<svg version="1.1" xmlns="http://www.w3.org/2000/svg" xmlns:xlink="http://www.w3.org/1999/xlink" x="0px" y="0px"
	 viewBox="0 0 30 30" style="enable-background:new 0 0 30 30;" xml:space="preserve">
<g id="강사">
	<path d="M24.8,26.2H5.2c-0.8,0-1.5-0.7-1.5-1.5V5.2c0-0.8,0.7-1.5,1.5-1.5h19.5c0.8,0,1.5,0.7,1.5,1.5v19.5
	C26.2,25.6,25.6,26.2,24.8,26.2z" fill="none" stroke="#0E0E0E" stroke-width="1.6" stroke-miterlimit="10"/>
	<path d="M6,18.8c0,0.7,0.7,1.3,1.5,1.3h5.1c0.8,0,1.5-0.6,1.5-1.3v-7.6c0-0.7-0.7-1.3-1.5-1.3H7.5
	C6.6,9.9,6,10.5,6,11.2V18.8z" fill="#0E0E0E"/>
	<path d="M10,11.2c-0.8,0-1.5,0.5-1.5,1.5c0,1,0.7,2,1.5,2c0.8,0,1.5-1.1,1.5-2C11.5,11.7,10.9,11.2,10,11.2z
	M13.2,18.4c0,0-1,0.5-3.3,0.5c-2.6,0-3.2-0.5-3.2-0.5c0.1-0.5,0.1-1.1,0.3-1.6c0.2-0.8,0.6-1.2,1.2-1.3c0.7,0,1,0.1,1-0.8
	c0,0,0.2,0.3,0.8,0.3c0.5,0,0.7-0.2,0.7-0.2c0,0.9,0.2,0.7,1,0.7c0.6,0.1,0.9,0.6,1.1,1.3C13.1,17.3,13.2,17.8,13.2,18.4z" fill="#fff"/>
	<path  d="M15.6,11.9c0-0.2,0.1-0.4,0.3-0.4h7.9c0.1,0,0.3,0.2,0.3,0.4V12c0,0.2-0.1,0.4-0.3,0.4h-7.9
	c-0.1,0-0.3-0.2-0.3-0.4V11.9z" fill="#0E0E0E"/>
	<path  d="M15.6,14.9c0-0.2,0.1-0.4,0.3-0.4h7.9c0.1,0,0.3,0.2,0.3,0.4v0.1c0,0.2-0.1,0.4-0.3,0.4h-7.9
	c-0.1,0-0.3-0.2-0.3-0.4V14.9z" fill="#0E0E0E"/>
	<path d="M15.6,18c0-0.2,0.1-0.4,0.3-0.4h7.9c0.1,0,0.3,0.2,0.3,0.4v0.1c0,0.2-0.1,0.4-0.3,0.4h-7.9
	c-0.1,0-0.3-0.2-0.3-0.4V18z" fill="#0E0E0E"/>
</g>
</svg>
