<svg xmlns="http://www.w3.org/2000/svg" viewBox="0 0 30 30" style="enable-background:new 0 0 30 30" xml:space="preserve">
    <style>
        .st0{display:none}.st1{display:inline}.st2,.st3{fill-rule:evenodd;clip-rule:evenodd;fill:#0e0e0e}.st3{fill:#c4722c}.st4{fill:#0e0e0e}.st5{fill:#0d0d0d}.st6{fill:#cc752b}.st8{fill:#fff}.st10{fill:#c4722c}.st11{fill:#d57827}.st12{fill:#0d0c0c}.st13,.st14,.st16,.st17,.st18,.st20{fill:none;stroke:#0d0c0c;stroke-width:1.5637;stroke-linecap:round;stroke-linejoin:round;stroke-miterlimit:10}.st14,.st16,.st17,.st18,.st20{stroke-width:1.0425}.st16,.st17,.st18,.st20{stroke-width:.8352}.st17,.st18,.st20{stroke:#cc752b;stroke-width:1.5637}.st18,.st20{stroke-width:1.0425}.st20{stroke-width:.8352}
    </style>
    <g id="문자_00000147193082741096909890000013390297504500800677_">
        <path class="st6" d="M19.3 4.4h-8.6c-4.7 0-8.5 3.8-8.5 8.5v1c0 2 .8 4 2.1 5.6 1.3 1.4 3 2.3 4.7 3.2.8.4 1.6.8 2.4 1.3.5.3 1 .6 1.5.8.2.1 1.5.7 1.5.8v-3.2h4.9c4.7 0 8.5-3.8 8.5-8.5v-1c0-4.7-3.8-8.5-8.5-8.5z"/>
        <circle class="st12" cx="9.9" cy="14" r="1.1"/>
        <circle class="st12" cx="15" cy="14" r="1.1"/>
        <circle class="st12" cx="20.1" cy="14" r="1.1"/>
    </g>
</svg>
