<svg xmlns="http://www.w3.org/2000/svg" viewBox="0 0 30 30" style="enable-background:new 0 0 30 30" xml:space="preserve">
    <g id="예약_00000028321083272876763830000001834503740190753715_">
        <path d="M15 2.7C8.2 2.7 2.7 8.2 2.7 15c0 6.8 5.5 12.3 12.3 12.3 6.8 0 12.3-5.5 12.3-12.3 0-6.8-5.5-12.3-12.3-12.3zm0 22.1c-5.4 0-9.8-4.4-9.8-9.8S9.6 5.2 15 5.2s9.8 4.4 9.8 9.8-4.4 9.8-9.8 9.8z" fill="#cc752b"/>
        <path d="m17.4 10-.9 5.8-6.4 4c-.5.3-1.1.2-1.4-.3-.3-.5-.1-1.1.3-1.4l5.6-3.5.8-4.9c.1-.5.6-.9 1.1-.8.5.1.8.5.8 1 .1 0 .1.1.1.1z" fill="#cc752b"/>
    </g>
</svg>
