<?xml version="1.0" encoding="utf-8"?>
<!-- Generator: Adobe Illustrator 27.7.0, SVG Export Plug-In . SVG Version: 6.00 Build 0)  -->
<svg version="1.1" xmlns="http://www.w3.org/2000/svg" xmlns:xlink="http://www.w3.org/1999/xlink" x="0px" y="0px"
	 viewBox="0 0 30 30" style="enable-background:new 0 0 30 30;" xml:space="preserve">
<g id="기록">
	<g>
		<path d="M15.4,19c-0.3-0.4-0.7-0.8-1-1.3c-0.4-0.4-0.7-0.8-1.1-1.2c-0.4-0.4-0.8-0.8-1.2-1.1c-0.4-0.4-0.8-0.7-1.3-1
			l-1.3,6L15.4,19z" fill="#0E0E0E"/>
		<path d="M22.3,7.5c-0.8-0.8-1.6-1.6-2.4-2.2l-8.4,8.4c0.8,0.7,1.6,1.4,2.4,2.2c0.8,0.8,1.6,1.6,2.2,2.4l8.4-8.4
			C23.8,9.1,23.1,8.3,22.3,7.5z" fill="#0E0E0E"/>
		<path d="M25,4.8c-0.8-0.8-1.6-1.5-2.5-2.2l-2,2c0.9,0.6,1.7,1.4,2.5,2.2c0.8,0.8,1.5,1.6,2.2,2.5l2-2
			C26.5,6.4,25.8,5.6,25,4.8z" fill="#0E0E0E"/>
		<path d="M6.9,3.3C6.9,3.3,6.9,3.3,6.9,3.3C5.8,3.3,4.8,3.7,4,4.5C3.3,5.2,2.9,6.3,2.9,7.4v16c0,1.1,0.4,2.1,1.2,2.9
			c0.8,0.8,1.8,1.2,2.9,1.2c0,0,0,0,0,0h16c1.1,0,2.1-0.4,2.9-1.2c0.8-0.8,1.2-1.8,1.2-2.9v-8c0-0.6-0.5-1.1-1.1-1.1
			c-0.6,0-1.1,0.5-1.1,1.1v8c0,0.5-0.2,1-0.5,1.3c-0.4,0.4-0.8,0.5-1.3,0.5h-16c-0.5,0-1-0.2-1.3-0.5c-0.4-0.4-0.5-0.8-0.5-1.3l0-16
			c0-0.5,0.2-1,0.5-1.3C6,5.7,6.4,5.5,6.9,5.5h8C15.5,5.5,16,5,16,4.4s-0.5-1.1-1.1-1.1H6.9z" fill="#0E0E0E"/>
	</g>
</g>
</svg>
