<?xml version="1.0" encoding="utf-8"?>
<!-- Generator: Adobe Illustrator 27.7.0, SVG Export Plug-In . SVG Version: 6.00 Build 0)  -->
<svg version="1.1" xmlns="http://www.w3.org/2000/svg" xmlns:xlink="http://www.w3.org/1999/xlink" x="0px" y="0px"
	 viewBox="0 0 30 30" style="enable-background:new 0 0 30 30;" xml:space="preserve">
<g id="예약">
	<g>
		<path d="M15,2.7C8.2,2.7,2.7,8.2,2.7,15c0,6.8,5.5,12.3,12.3,12.3c6.8,0,12.3-5.5,12.3-12.3C27.3,8.2,21.8,2.7,15,2.7
			z M15,24.8L15,24.8c-5.4,0-9.8-4.4-9.8-9.8c0-5.4,4.4-9.8,9.8-9.8c5.4,0,9.8,4.4,9.8,9.8C24.8,20.4,20.4,24.8,15,24.8z" fill="#0e0e0e"/>
		<g>
			<path d="M17.4,10l-0.9,5.8l-6.4,4C9.6,20.1,9,20,8.7,19.5l0,0c-0.3-0.5-0.1-1.1,0.3-1.4l0,0l5.6-3.5l0.8-4.9
				c0.1-0.5,0.6-0.9,1.1-0.8l0,0c0.5,0.1,0.8,0.5,0.8,1l0,0C17.4,9.9,17.4,10,17.4,10L17.4,10z" fill="#0e0e0e"/>
		</g>
	</g>
</g>
</svg>
