<svg xmlns="http://www.w3.org/2000/svg" viewBox="0 0 30 30" style="enable-background:new 0 0 30 30" xml:space="preserve">
    <style>
        .st0{display:none}.st1{display:inline}.st2,.st3{fill-rule:evenodd;clip-rule:evenodd;fill:#0e0e0e}.st3{fill:#c4722c}.st4{fill:#0e0e0e}.st5{fill:#0d0d0d}.st6{fill:#cc752b}.st8{fill:#fff}.st10{fill:#c4722c}.st11{fill:#d57827}.st12{fill:#0d0c0c}.st13,.st14,.st16,.st17,.st18,.st20{fill:none;stroke:#0d0c0c;stroke-width:1.5637;stroke-linecap:round;stroke-linejoin:round;stroke-miterlimit:10}.st14,.st16,.st17,.st18,.st20{stroke-width:1.0425}.st16,.st17,.st18,.st20{stroke-width:.8352}.st17,.st18,.st20{stroke:#cc752b;stroke-width:1.5637}.st18,.st20{stroke-width:1.0425}.st20{stroke-width:.8352}
    </style>
    <g id="설정_00000085221807380284371960000000479576888051399328_">
        <path class="st6" d="M7.6 12.9c-1.1 0-2.1.9-2.1 2.1 0 1.1.9 2.1 2.1 2.1s2.1-.9 2.1-2.1c-.1-1.1-1-2.1-2.1-2.1zM15 12.9c-1.1 0-2.1.9-2.1 2.1 0 1.1.9 2.1 2.1 2.1 1.1 0 2.1-.9 2.1-2.1 0-1.1-1-2.1-2.1-2.1zM22.4 12.9c-1.1 0-2.1.9-2.1 2.1 0 1.1.9 2.1 2.1 2.1s2.1-.9 2.1-2.1c0-1.1-.9-2.1-2.1-2.1z"/>
    </g>
</svg>
